<svg width="24" height="24" viewBox="0 0 24 24" fill="none" xmlns="http://www.w3.org/2000/svg">
<path fill-rule="evenodd" clip-rule="evenodd" d="M24 12C24 18.6274 18.6274 24 12 24C5.37258 24 0 18.6274 0 12C0 5.37258 5.37258 0 12 0C18.6274 0 24 5.37258 24 12ZM12.4301 8.85896C11.2629 9.34443 8.93019 10.3492 5.43194 11.8734C4.86388 12.0992 4.56631 12.3202 4.53922 12.5363C4.49344 12.9015 4.95076 13.0453 5.57352 13.2411C5.65823 13.2678 5.746 13.2954 5.83599 13.3246C6.44869 13.5238 7.27288 13.7568 7.70134 13.7661C8.08999 13.7745 8.52378 13.6142 9.00269 13.2854C12.2712 11.079 13.9584 9.96384 14.0644 9.9398C14.1391 9.92284 14.2427 9.90151 14.3128 9.96387C14.383 10.0262 14.3761 10.1443 14.3687 10.176C14.3233 10.3692 12.5282 12.0381 11.5992 12.9018C11.3096 13.1711 11.1041 13.362 11.0621 13.4057C10.9681 13.5034 10.8722 13.5958 10.78 13.6846C10.2108 14.2334 9.78396 14.6448 10.8037 15.3168C11.2937 15.6397 11.6858 15.9068 12.077 16.1732C12.5042 16.4641 12.9303 16.7543 13.4817 17.1157C13.6221 17.2078 13.7563 17.3034 13.8869 17.3966C14.3841 17.751 14.8308 18.0694 15.3826 18.0187C15.7033 17.9892 16.0345 17.6876 16.2027 16.7884C16.6003 14.6632 17.3817 10.0585 17.5623 8.161C17.5781 7.99476 17.5582 7.782 17.5422 7.6886C17.5262 7.59521 17.4928 7.46214 17.3714 7.36363C17.2276 7.24697 17.0057 7.22236 16.9064 7.22411C16.4551 7.23206 15.7626 7.47285 12.4301 8.85896Z" fill="#423422"/>
</svg>
